#!OML:ASF E:/inclinewalkrobotboard/Project1/Captureday1/Session1/subject1.ASF
:FULLY-SPECIFIED
:DEGREES
26
root 0 0 0 1.9876080238260485 -3.7412161584343524 2.875821794426175
lowerback 12.24800869020709 0.8159821972436331 -0.8495777581851919
upperback -4.079615793533974 0.9476880062083595 -0.7486160068645956
thorax -11.267806532127885 0.4417784753287952 -0.5481340074559582
lowerneck -7.0940304095851365 1.4426964147680785 4.31803072856063
upperneck 19.3018776749506 2.9414725229335694 -8.286689148011908
head 7.219735700795549 1.0133275006700355 -3.1986334935070477
rclavicle -1.056679136970746E-15 -1.7516984141234721E-15
rhumerus 16.84804236389202 12.502942701506262 -50.79696135517233
rradius 68.43311262615617
rwrist 24.401598262230355
rhand -32.9503142717938 -49.22817058401256
rfingers 7.125019999999964
rthumb -6.215029596676761 -79.31626580528527
lclavicle 4.98391824496677E-16 9.640674810356647E-17
lhumerus 17.882504204220133 -13.604698161901378 49.32160954906746
lradius 67.27174318674362
lwrist -18.324519394959246
lhand -44.02828346930048 -60.81212801322321
lfingers 7.1250199999999575
lthumb -16.86156724277308 -31.376431288080706
rfemur -35.114127437897366 -1.6299581430989099 15.202426137695646
rtibia 54.11942067263797
rfoot -17.935731574460128 -15.87409619118187
rtoes -11.807586050460836
lfemur -21.89446914747173 4.214334516910897 -16.09528890451273
ltibia 58.322561492688195
lfoot -19.17259790069876 -1.7140305190431548
ltoes -14.300896778353554
27
root 0 0 0 2.180410986310734 -3.811883867455984 2.733640497548533
lowerback 12.205420523799303 0.8617883277131639 -0.7077481061907428
upperback -4.102197214062413 1.0272918598819696 -0.7416575651478524
thorax -11.256166256895737 0.4759565007275178 -0.634753343192535
lowerneck -7.081931081314006 1.4350099283396796 4.3242823265254025
upperneck 19.193961858467894 2.9279413080245904 -8.267903631691352
head 7.181161780487086 1.0106839802954664 -3.1932559573005195
rclavicle -1.1742649994630624E-15 -1.6071150936850652E-15
rhumerus 17.178889568566724 12.94406742559338 -51.05270566220328
rradius 68.69968898278373
rwrist 24.111943426130182
rhand -32.96429941830059 -49.215244535582755
rfingers 7.125019999999964
rthumb -6.230033271348715 -79.29003389264977
lclavicle 5.830683752058214E-16 2.777829331201368E-16
lhumerus 17.980448124046184 -13.81450768642216 49.39383964611005
lradius 67.4008376632747
lwrist -18.202929429061577
lhand -44.0287570945671 -60.628033514791056
lfingers 7.1250199999999575
lthumb -16.860447905452304 -31.19433868581967
rfemur -33.57411609998874 -1.083445072722378 16.040545537282664
rtibia 50.59488134050814
rfoot -21.190525082616418 -16.54357939857353
rtoes -13.459688257045322
lfemur -22.885053550711614 3.5879257713410553 -16.090009631631432
ltibia 52.406759965639054
lfoot -23.028382417907327 1.2289825922363633
ltoes -15.13513662145045
28
root 0 0 0 2.5063273530007146 -3.9938054248822334 2.494601830785387
lowerback 12.085784472330953 0.9818820731134589 -0.45354364937783886
upperback -4.149725564603642 1.2175216253866477 -0.7570562261722186
thorax -11.216450840680174 0.5606400684537369 -0.8233965891519075
lowerneck -7.030322661713289 1.3970774901111136 4.317480062447797
upperneck 19.056436477804127 2.8656917386158822 -8.193980849419932
head 7.12683599421236 0.9907919764544116 -3.171097541651009
rclavicle -1.2226225839309985E-15 -1.297123805604875E-15
rhumerus 17.605084947581304 13.532028294466839 -51.4230234717143
rradius 69.04400066062432
rwrist 23.70056683570125
rhand -32.97308877824186 -49.15423140330846
rfingers 7.125019999999963
rthumb -6.240318358717982 -79.2133312600108
lclavicle 7.970613057120451E-16 6.129015755965786E-16
lhumerus 18.001610637945582 -13.95113467511881 49.47171575730938
lradius 67.45567686174647
lwrist -18.098640468818573
lhand -44.00760006972793 -60.41133424897467
lfingers 7.1250199999999575
lthumb -16.83817918162682 -30.975278145176407
rfemur -29.731244884539088 -0.010936902358503087 17.782433921686476
rtibia 44.11360830676669
rfoot -26.005035044384762 -17.036460451259746
rtoes -16.604341467737964
lfemur -23.153654472963165 2.2977276275622254 -16.08088677144589
ltibia 42.38320983704622
lfoot -28.156859314114897 5.09037264114638
ltoes -17.330279136012226
29
root 0 0 0 2.67359381181034 -4.101922968401524 2.3739233451048922
lowerback 11.992520190678526 1.0575929092454077 -0.3235754148920882
upperback -4.176480475975085 1.332086226215127 -0.7744874975976043
thorax -11.178593568890292 0.612626636093502 -0.9303455503280298
lowerneck -6.998302228199292 1.3641909494341966 4.302639964285894
upperneck 19.016190083264494 2.8135357629404236 -8.132667960071036
head 7.108758671026342 0.9721137996031873 -3.152291950557978
rclavicle -1.2489971538629786E-15 -1.064246968622387E-15
rhumerus 17.730107193310054 13.72071419712177 -51.56425915318846
rradius 69.14317009904802
rwrist 23.549423707055603
rhand -32.96793625622519 -49.0983028742291
rfingers 7.125019999999963
rthumb -6.235406243335788 -79.15374063432375
lclavicle 8.863449662266353E-16 7.818163854909138E-16
lhumerus 17.93453816982364 -13.911439933295192 49.49267110923689
lradius 67.39933078856956
lwrist -18.093993813685714
lhand -43.98335286108034 -60.338784340396224
lfingers 7.125019999999957
lthumb -16.81455747425081 -30.8996562893896
rfemur -27.37928651661597 0.7936699480275216 18.78546396624466
rtibia 39.363601717216355
rfoot -27.866330947711564 -16.93866642396091
rtoes -18.467490430196726
lfemur -22.47042831510469 1.480086495411165 -16.038463920186828
ltibia 37.535939617760874
lfoot -29.193837658255998 6.074100794293025
ltoes -18.56776344864214
